<?xml version="1.0" standalone="no"?>
<!DOCTYPE svg PUBLIC "-//W3C//DTD SVG 20010904//EN"
 "http://www.w3.org/TR/2001/REC-SVG-20010904/DTD/svg10.dtd">
<svg version="1.0" xmlns="http://www.w3.org/2000/svg"
 width="625.000000pt" height="625.000000pt" viewBox="0 0 625.000000 625.000000"
 preserveAspectRatio="xMidYMid meet">
<metadata>
Created by potrace 1.11, written by Peter Selinger 2001-2013
</metadata>
<g transform="translate(0.000000,625.000000) scale(0.100000,-0.100000)"
fill="#000000" stroke="none">
<path d="M2850 6119 c-500 -49 -964 -213 -1375 -483 -671 -443 -1139 -1135
-1295 -1916 -45 -225 -55 -334 -55 -595 0 -261 10 -370 55 -595 235 -1179
1171 -2115 2350 -2350 225 -45 334 -55 595 -55 261 0 370 10 595 55 1179 235
2115 1171 2350 2350 45 225 55 334 55 595 0 261 -10 370 -55 595 -215 1080
-1020 1963 -2080 2283 -139 42 -316 81 -471 102 -137 19 -534 28 -669 14z
m887 -1251 c4 -7 58 -134 120 -283 l111 -270 -116 -115 c-279 -275 -1783
-1732 -1786 -1729 -9 13 -236 583 -234 589 2 3 255 250 563 549 308 299 592
575 630 613 l70 70 -883 -3 -883 -4 -115 280 c-63 154 -117 288 -120 298 -5
16 62 17 1315 17 1041 0 1322 -3 1328 -12z m567 -1380 c64 -158 116 -291 116
-295 -1 -4 -284 -282 -630 -618 l-629 -610 882 -3 882 -2 112 -278 c62 -152
115 -285 119 -294 6 -17 -61 -18 -1318 -18 l-1325 0 -111 274 c-61 151 -113
279 -114 285 -4 14 1883 1864 1892 1854 4 -4 60 -137 124 -295z"/>
</g>
</svg>
